<svg xmlns="http://www.w3.org/2000/svg" viewBox="0 0 1200 800" role="img" aria-label="Operaciones aéreas en Colombia">
  <defs>
    <linearGradient id="sky" x1="0" y1="0" x2="1" y2="1">
      <stop offset="0" stop-color="#dbeafe"/>
      <stop offset="0.55" stop-color="#f8fafc"/>
      <stop offset="1" stop-color="#cffafe"/>
    </linearGradient>
    <linearGradient id="runway" x1="0" y1="0" x2="0" y2="1">
      <stop offset="0" stop-color="#1e3a8a" stop-opacity="0.88"/>
      <stop offset="1" stop-color="#0f172a" stop-opacity="0.96"/>
    </linearGradient>
    <filter id="shadow" x="-20%" y="-20%" width="140%" height="140%">
      <feDropShadow dx="0" dy="18" stdDeviation="18" flood-color="#0f172a" flood-opacity="0.18"/>
    </filter>
  </defs>
  <rect width="1200" height="800" fill="url(#sky)"/>
  <g opacity="0.32" fill="none" stroke="#2563eb" stroke-width="1.2">
    <path d="M80 140 C230 80 340 200 470 130 S750 70 930 150 S1110 240 1190 170"/>
    <path d="M35 265 C210 195 365 325 540 240 S810 160 1000 270 S1160 360 1230 300"/>
    <path d="M20 390 C210 330 375 435 555 372 S815 300 1020 430 S1190 515 1250 455"/>
  </g>
  <g opacity="0.25" stroke="#94a3b8" stroke-width="2" fill="none">
    <path d="M620 130c45 25 80 70 73 125-7 58-58 91-88 132-31 42-29 92-69 126-48 41-125 24-177 56-57 35-73 118-137 139"/>
    <path d="M830 122c-50 60-53 130-13 190 34 51 108 73 116 143 9 82-77 120-109 177"/>
  </g>
  <g filter="url(#shadow)">
    <path d="M190 760 L565 325 L860 760 Z" fill="url(#runway)"/>
    <path d="M532 380 L575 380 L608 730 L486 730 Z" fill="#f8fafc" opacity="0.18"/>
    <g stroke="#f8fafc" stroke-width="12" stroke-linecap="round" opacity="0.9">
      <path d="M532 720 L548 640"/>
      <path d="M568 530 L576 485"/>
      <path d="M588 430 L592 405"/>
    </g>
  </g>
  <g transform="translate(625 235) rotate(-18)" filter="url(#shadow)">
    <path d="M0 42 L330 -25 C363 -32 378 -18 350 2 L205 106 L255 185 L222 196 L138 142 L52 206 L19 215 L72 92 L-35 62 Z" fill="#2563eb"/>
    <path d="M16 43 L320 -16 C346 -21 351 -14 327 2 L202 88 L78 66 Z" fill="#60a5fa" opacity="0.75"/>
  </g>
  <g opacity="0.95">
    <circle cx="300" cy="245" r="10" fill="#2563eb"/><circle cx="300" cy="245" r="24" fill="#2563eb" opacity="0.12"/>
    <circle cx="785" cy="380" r="12" fill="#10b981"/><circle cx="785" cy="380" r="28" fill="#10b981" opacity="0.13"/>
    <circle cx="910" cy="535" r="9" fill="#f97316"/><circle cx="910" cy="535" r="22" fill="#f97316" opacity="0.13"/>
    <circle cx="450" cy="505" r="8" fill="#7c3aed"/><circle cx="450" cy="505" r="21" fill="#7c3aed" opacity="0.12"/>
  </g>
  <g fill="#ffffff" opacity="0.85">
    <rect x="72" y="82" width="340" height="90" rx="24"/>
    <rect x="800" y="85" width="285" height="76" rx="22"/>
    <rect x="760" y="645" width="315" height="82" rx="22"/>
  </g>
  <g font-family="Inter, Arial" fill="#0f172a">
    <text x="104" y="126" font-size="26" font-weight="800">Operaciones aéreas</text>
    <text x="104" y="154" font-size="18" fill="#64748b">Mapa · datos · clima</text>
    <text x="835" y="130" font-size="21" font-weight="800">Colombia</text>
    <text x="835" y="153" font-size="16" fill="#64748b">aeropuertos conectados</text>
    <text x="795" y="692" font-size="20" font-weight="800">Exploración visual</text>
    <text x="795" y="717" font-size="16" fill="#64748b">operación, pasajeros, carga y METAR</text>
  </g>
</svg>